<svg xmlns="http://www.w3.org/2000/svg" xmlns:xlink="http://www.w3.org/1999/xlink" version="1.1" x="0px" y="0px" viewBox="0 0 98 122.5" style="enable-background:new 0 0 98 98;" xml:space="preserve"><g><path d="M53.4,40.4c0.3,0.2,0.7,0.3,1.1,0.3c0.6,0,1.3-0.3,1.7-0.9l6.6-9.8h21.4l-7.2,7.2c-0.8,0.8-0.8,2,0,2.8   c0.4,0.4,0.9,0.6,1.4,0.6s1-0.2,1.4-0.6l10.7-10.7c0.8-0.8,0.8-2,0-2.8L79.7,16c-0.8-0.8-2-0.8-2.8,0c-0.8,0.8-0.8,2,0,2.8l7.2,7.2   H61.7c-0.7,0-1.3,0.3-1.7,0.9l-7.2,10.7C52.2,38.6,52.5,39.8,53.4,40.4z"/><path d="M42.5,56.6c-0.9-0.6-2.2-0.4-2.8,0.5l-7.2,10.7H9c-1.1,0-2,0.9-2,2s0.9,2,2,2h24.5c0.7,0,1.3-0.3,1.7-0.9   L43,59.4C43.6,58.4,43.4,57.2,42.5,56.6z"/><path d="M79.7,57.8c-0.8-0.8-2-0.8-2.8,0c-0.8,0.8-0.8,2,0,2.8l7.2,7.2H62.8L35.2,27.1c-0.4-0.6-1-0.9-1.7-0.9H9   c-1.1,0-2,0.9-2,2s0.9,2,2,2h23.4L60,71c0.4,0.6,1,0.9,1.7,0.9h22.4l-7.2,7.2c-0.8,0.8-0.8,2,0,2.8c0.4,0.4,0.9,0.6,1.4,0.6   s1-0.2,1.4-0.6l10.7-10.7c0.8-0.8,0.8-2,0-2.8L79.7,57.8z"/></g><text x="0" y="113" fill="#000000" font-size="5px" font-weight="bold" font-family="'Helvetica Neue', Helvetica, Arial-Unicode, Arial, Sans-serif">Created by Ranjit</text><text x="0" y="118" fill="#000000" font-size="5px" font-weight="bold" font-family="'Helvetica Neue', Helvetica, Arial-Unicode, Arial, Sans-serif">from the Noun Project</text></svg>